<svg xmlns="http://www.w3.org/2000/svg" viewBox="0 0 206 99"><path d="M170.6 73.3c-5.8 0-11.1-3.5-9.8-13l4.4-31.1H179l-4.6 32c-.5 3.9 1 5.2 2.8 5.2 2.4 0 6.5-4.3 7-5.1.6-.8 2.1-1.2-.4 2.8-2.7 4.5-8.6 9.2-13.2 9.2M134 6h-14l-8.4 60.4c-.5 3.5.8 6.9 6.8 6.9 6.2 0 14.3-10.9 15-12 .5-.8-.1-1.8-1.7-.3-1.8 1.7-6.1 4.8-5.5-.4L134 6zm24.2 0h-14l-8.4 60.4c-.5 3.5.8 6.9 6.8 6.9 6.2 0 14.3-10.9 15-12 .5-.8-.1-1.8-1.7-.3-1.8 1.7-6.1 4.8-5.5-.4L158.2 6zM23.6 61.3c-.6.8-4.7 5.1-7 5.1-1.7 0-3.3-1.3-2.8-5.2l4.6-32H4.6L.2 60.4c-1.3 9.5 4.1 13 9.8 13 4.6 0 10.4-4.8 13.2-9.2 2.6-4.1 1-3.7.4-2.9M51.9 38c13 26.9 1.9 31.4-4.6 31.4-7.8 0-6.9-6-6.4-9.9l4.3-30.2H31.3L29 46.6l-2.2 15.5c-.6 8.2 4.2 11.2 11.9 11.2 19 0 36-17.8 28.7-38.9C63.8 24.3 47 28 51.9 38M192 29.3l-2.3 17.3c-.1.4-.1.9-.2 1.3l-2 14.3-1.5 10.3c-1.7 12.5 6.2 26.1-4.6 16.4-.2-.2-.4-.4-.6-.5-.3-.2-.5-.5-.8-.7-.2-.2-.4-.4-.7-.5-3.2-2.7-6.9-5.3-9.9-5.2-3.6.1-7.3 2.8-7.3 7.8.1 10.9 16.9 10.2 26.1 3.4 7.7-5 10.8-15.7 12-24l5.6-39.7H192zM88.2 46.8s-.7 0-.8.4c-.1.5.7.7.7.7 29 5.2 29.8-18.9 10-19.3-.4 0-1.3 0-1.4.6-.1.4.6 1 .6 1 3.8 3.6.2 14.1-9.1 16.6m21.8 9.4c-.5-.2-.8.6-1.9 1.8-1.9 2.1-5.9 5.4-12.5 5.4-6.5 0-12.5-4.3-10.9-16l.3-1.7c1.4-8.1 4.2-13.1 7.5-14.9.5-.3 1.8-.9 2-1.3.5-1-.7-.8-1.1-.8-10 1.4-21 9.4-22.8 22.7-1.6 11.7 4.7 22 18.9 22 9.8 0 17.2-7.2 20.5-15.9.2-.8.3-1.2 0-1.3M198.9 96c0 1.6-1.3 2.9-2.9 2.9-1.6 0-2.9-1.3-2.9-2.9 0-1.6 1.3-2.9 2.9-2.9 1.6 0 2.9 1.3 2.9 2.9zm-5.1 0c0 1.3.9 2.3 2.2 2.3 1.3 0 2.2-1 2.2-2.3 0-1.3-.9-2.3-2.2-2.3-1.3 0-2.2 1-2.2 2.3zm1.7 1.5h-.7v-2.9c.3-.1.6-.1 1.1-.1.5 0 .8.1 1 .2.2.1.3.3.3.6s-.2.6-.6.7c.3.1.4.3.5.7.1.4.1.6.2.7h-.7c-.1-.1-.1-.4-.2-.7-.1-.3-.2-.5-.6-.5h-.3v1.3zm.1-1.7h.3c.4 0 .7-.1.7-.4 0-.3-.2-.4-.6-.4h-.4v.8z" fill="#004c45"/></svg>