<svg xmlns="http://www.w3.org/2000/svg" width="56" height="56" viewBox="0 0 56 56">
    <path fill="#FFF" fill-rule="evenodd" d="M31.213 20.196c.881-1.186 3.514-.33 4.393 1.537.878 1.866.44 3.733-1.538 4.282-1.976.55-5.71-1.976-2.855-5.82zm2.087 1.647c-.546 0-.989.491-.989 1.098 0 .606.443 1.098.989 1.098.545 0 .988-.492.988-1.098 0-.607-.443-1.098-.988-1.098zm-6.852 19.39c.893.556-.167 3.083-.224 3.342-.417.163-1.03.219-1.425-.145.495-1.218.718-2.344.774-2.592.118-.522.48-.852.875-.606zm4.563-.397c.648-.345 1.223-.032 1.266.184.04.199-.425 1.9-.623 3.134-.42.287-1.144.455-1.592.455-.03-.939.47-3.517.95-3.773zm-1.915.166c.475.13.35.887.135 1.75-.128.51-.21 1.458-.294 1.999-.47.178-1.344.194-1.68.06.072-1.042.465-2.92.538-3.136.224-.673.826-.802 1.301-.673zm-.683-26.615c2.267-.444 4.163 1.516 3.154 3.351-1.013 1.842-3.626 1.817-5.126 2.316-.474.158-1.113.349-1.849.59-.33-1.517-.774-3.298-1.483-4.745 2.016-.722 4.155-1.288 5.304-1.512zm-2.563 2.362a.36.36 0 1 0 0-.72.36.36 0 0 0 0 .72zm.643 2.339a.36.36 0 1 0 0-.72.36.36 0 0 0 0 .72zm1.044-1.514a.36.36 0 1 0 0-.72.36.36 0 0 0 0 .72zm1.01-1.481a.36.36 0 1 0 0-.72.36.36 0 0 0 0 .72zm.639 2.187a.36.36 0 1 0 0-.72.36.36 0 0 0 0 .72zM24.37 36.703c1.228 1.506.453 4.086-.18 6.184-.083.272-.164.54-.238.797a.346.346 0 0 1-.663-.192c.075-.26.156-.53.24-.805.648-2.15 1.384-4.584.128-5.744l-.042-.04-.004-.006c-1.51.39-2.946.794-4.107 1.22-2.495.916-6.267 2.505-8.794 3.967 1.437-1.727 3.565-3.74 6.215-5.065 1.696-.847 4.042-1.544 6.328-2.216l.01-.003.139-.041c3.335-.98 6.485-1.906 8.097-3.312a.345.345 0 1 0-.454-.52c-1.498 1.306-4.721 2.253-7.838 3.17l-.283.083-.672.198c-2.05.609-4.088 1.25-5.636 2.024-3.613 1.807-6.298 4.85-7.636 6.828a5.475 5.475 0 0 0-.439.386c-1.726 1.727-2.472 3.118-2.762 1.381-.345-2.071-.345-2.762.69-4.833 1.036-2.072 6.216-7.942 11.74-11.05.477-.267.922-.502 1.343-.711.08-.672-.152-2.027-.363-3.25-.063-.366-.125-.737-.186-1.11a5.24 5.24 0 0 1 .622-.48c.076.494.161.988.245 1.473.227 1.323.388 2.316.386 3.031 3.912-1.78 5.27-.949 6.24-.679 1.122.313 5.87 1.382 8.286 1.036 2.417-.345-.086 3.658-1.035 5.18-.667 1.067-5.176 2.038-9.377 3.099zm14.8-18.976c3.582 8.355 1.93 13.673 1.053 15.572-.894 1.937-2.19 3.145-3.444 4.313-1.693 1.577-3.155 2.94-3.341 5.81a.345.345 0 1 1-.69-.045c.205-3.144 1.835-4.663 3.56-6.27 1.205-1.123 2.451-2.283 3.288-4.097 1.745-3.78 1.349-9.392-1.06-15.012-.89-2.078-2.85-3.796-5.517-4.838-2.277-.889-4.903-1.202-6.853-.819-4.894.964-6.175 3.302-6.735 5.242.768-.503 1.853-.997 3.024-1.443.706 1.411 1.149 3.207 1.478 4.726-1.147.397-2.46.913-3.744 1.611-.013.004-.026.007-.039.013a5.82 5.82 0 0 0-.805.432l-.022.014a6.753 6.753 0 0 0-.419.294l-.046.034c-.738-.432-1.683-3.32-.26-4.988l.016-.018c.03-.311.076-.594.145-.835.906-3.17 3.149-4.946 7.274-5.759 4.058-.8 11.02 1.12 13.137 6.063zM.256 24.802l.101-1.368 4.857.358-.1 1.367-1.832-.134-.156 2.122 1.832.134-.101 1.368L0 28.292l.1-1.368 1.832.135.156-2.122-1.832-.135zm6.015-6.565l-.824 2.105.571.546-.484 1.238-3.792-3.698.546-1.393 5.294-.141-.521 1.331-.79.012zm-1.17.024l-1.789.032 1.292 1.237.497-1.269zm-.943-5.05l2.948-3.942.945.707-1.065 1.425 2.956 2.21-.817 1.092-2.956-2.21-1.065 1.424-.946-.707zm6.17-3.772c-.915-1.164-.738-2.635.439-3.56 1.307-1.027 2.477-.466 2.902-.101l-1.099.863c-.144-.076-.602-.161-1.054.193-.555.437-.542 1.166-.09 1.742.452.575 1.158.76 1.713.324.478-.375.46-.815.444-.983l1.092-.858c.23.401.555 1.743-.786 2.796-1.177.924-2.653.741-3.562-.416zm9.444-4.976l-1.978.784.678 1.708-1.276.506L15.4 2.933l1.275-.506.677 1.708 1.978-.785-.677-1.708 1.275-.506 1.796 4.528-1.275.506-.677-1.707zM27.688 0l.09 1.068-2.79.237.06.72 1.665-.14.094 1.11-1.664.14.07.837 3.065-.26.095 1.119-4.44.376-.411-4.854L27.688 0zm3.55.193L33.25.6c1.524.309 2.518 1.308 2.189 2.93-.323 1.589-1.634 2.155-3.158 1.845l-2.012-.408.968-4.775zm1.115 1.405L31.845 4.1l.652.132c.767.156 1.41-.172 1.574-.979.171-.847-.3-1.368-1.066-1.523l-.652-.132zm9.995 2.515l1.154.74-2.63 4.1-1.154-.74 2.63-4.1zm3.202 4.652l-2.17 2.155-.944-.95 3.457-3.431 1.083 1.09-.447 3.314 1.882-1.868.925.932-3.456 3.432-.808-.815.478-3.86zm6.454 12.313l2.947.243.524 1.848-4.686 1.33-.36-1.271 3.414-.97-3.766-.235-.247-.872 3.08-2.18-3.415.97-.34-1.199 4.685-1.33.545 1.919-2.381 1.747zm-1.177 5.748l4.871-.075.022 1.371-4.872.076-.021-1.372zm2.68 5.686l-2.985-.671.293-1.306 4.753 1.068-.337 1.5-3.034 1.406 2.587.581-.288 1.282-4.752-1.068.251-1.12 3.511-1.672zm-2.62 7.58l-2.639-1.548.677-1.155 4.203 2.464-.778 1.327-3.318.416 2.288 1.341-.664 1.133-4.203-2.464.58-.99 3.855-.525zm-2.456 6.667l-3.05 2.86-.734-.781 2.044-1.917-.495-.528-1.22 1.144-.761-.813 1.219-1.143-.575-.613-2.244 2.105-.767-.819 3.25-3.049 3.333 3.554zm-7.487 4.188c-.1-.192-.32-.217-.667-.073-.24.097-.37.155-.639.268-1.132.489-1.97.43-2.459-.506-.478-.914-.07-1.784 1.227-2.462 1.533-.8 2.496-.338 2.934.211l-1.29.674c-.184-.156-.58-.25-1.155.05-.479.251-.622.533-.499.768.135.258.38.242.72.103l.649-.265c1.085-.454 1.954-.317 2.39.515.461.884-.1 1.75-1.19 2.32-1.466.765-2.329.335-2.74-.163l1.224-.64c.168.09.504.14 1.027-.133.405-.212.587-.439.468-.667zm-5.256 1.233c.317 1.514-.613 2.71-2.045 3.01-1.448.303-2.772-.422-3.089-1.935-.308-1.472.605-2.708 2.053-3.011 1.456-.305 2.772.464 3.08 1.936zm-3.767.789c.155.74.743 1.195 1.475 1.041.724-.151 1.088-.805.933-1.545-.151-.724-.75-1.185-1.473-1.034-.732.154-1.085.822-.935 1.538zm-6.269 1.455l.22-3.685 1.361.081-.22 3.685 1.776.106-.07 1.178-4.913-.293.07-1.178 1.776.106zm-6.219-4.413l2.147.71.514-.601 1.263.418-3.488 3.986-1.421-.47-.427-5.28 1.357.449.055.788zm.087 1.168l.129 1.784 1.166-1.357-1.295-.427z"/>
</svg>
