<svg width="72" height="50" viewBox="0 0 72 50" fill="none" xmlns="http://www.w3.org/2000/svg">
<g id="right 1" clip-path="url(#clip0)">
<g id="Group">
<g id="Group_2">
<path id="Vector" d="M71.5605 24.2635L49.0605 8.63848C48.4746 8.23155 47.5253 8.23155 46.9395 8.63848C46.3535 9.04542 46.3535 9.7046 46.9395 10.1114L66.879 23.9583H1.50005C0.670922 23.9583 0 24.4242 0 25C0 25.5758 0.670922 26.0417 1.50005 26.0417H66.879L46.9395 39.8885C46.3535 40.2954 46.3535 40.9546 46.9395 41.3614C47.2324 41.5649 47.6163 41.6666 48.0001 41.6666C48.3839 41.6666 48.7676 41.5649 49.0607 41.3614L71.5607 25.7364C72.1465 25.3296 72.1465 24.6704 71.5605 24.2635Z" fill="black"/>
</g>
</g>
</g>
<defs>
<clipPath id="clip0">
<rect width="72" height="50" fill="white"/>
</clipPath>
</defs>
</svg>
